<svg preserveAspectRatio="none" overflow="visible" style="display: block;" width="78.5816" height="85.8534" viewBox="0 0 78.5816 85.8534" fill="none" xmlns="http://www.w3.org/2000/svg">
<g id="Layer_1" clip-path="url(#clip0_0_4)">
<path id="Vector" d="M20.0823 20.8903L54.9019 11.6531M15.2344 16.3372L50.054 7.13281" stroke="#1C1C1C" stroke-width="3.17733" stroke-linecap="round" stroke-linejoin="round"/>
<g id="Group 1410124876">
<path id="Vector_2" d="M63.1687 43.2359L63.529 15.4261L17.8999 27.2182L16.95 84.2464M2.50461 13.3625L17.8672 27.2182L16.9172 84.2464H16.95L50.4594 75.5988M48.1337 1.57031L2.50461 13.3625L1.55469 70.4234L16.95 84.2464" stroke="#1C1C1C" stroke-width="3.14457" stroke-linecap="round" stroke-linejoin="round"/>
<path id="Vector_3" d="M36.4062 46.22H53.8652C49.7707 54.7038 43.8091 59.9447 36.4062 63.1221M45.1521 46.22V40.5859" stroke="#1C1C1C" stroke-width="3.17733" stroke-linecap="round" stroke-linejoin="round"/>
<path id="Vector_4" d="M46.7656 56.3359C49.1568 59.0547 51.8428 61.3148 54.7581 63.2474" stroke="#1C1C1C" stroke-width="3.17733" stroke-linecap="round" stroke-linejoin="round"/>
<path id="Vector_5" d="M57.0234 73.5654L65.1469 52.6016H68.8811L77.0046 73.5654M60.2008 65.3764H73.8273" stroke="#1C1C1C" stroke-width="3.17733" stroke-linecap="round" stroke-linejoin="round"/>
</g>
</g>
<defs>
<clipPath id="clip0_0_4">
<rect width="78.5816" height="85.8534" fill="white"/>
</clipPath>
</defs>
</svg>
